<mxfile host="app.diagrams.net" modified="2024-05-04T19:13:08.728Z" agent="Mozilla/5.0 (Windows NT 10.0; Win64; x64) AppleWebKit/537.36 (KHTML, like Gecko) Chrome/124.0.0.0 Safari/537.36" version="24.3.1" etag="wArirLNxLFRnz0QUk6bb" type="device">
  <diagram id="mU85xhrC2ozWevP0KGYH" name="‫صفحه - 1‬">
    <mxGraphModel dx="1438" dy="1127" grid="1" gridSize="10" guides="1" tooltips="1" connect="1" arrows="1" fold="1" page="0" pageScale="1" pageWidth="827" pageHeight="1169" background="none" math="0" shadow="0">
      <root>
        <mxCell id="0" />
        <mxCell id="1" parent="0" />
        <mxCell id="node2" value="&lt;p style=&quot;margin:0px;margin-top:4px;text-align:center;&quot;&gt;&lt;b&gt;AbstractCard&lt;/b&gt;&lt;/p&gt;&lt;hr size=&quot;1&quot;/&gt;&lt;p style=&quot;margin:0 0 0 4px;line-height:1.6;&quot;&gt;+ AbstractCard(String, String): &lt;/p&gt;&lt;hr size=&quot;1&quot;/&gt;&lt;p style=&quot;margin:0 0 0 4px;line-height:1.6;&quot;&gt;- name: String&lt;br/&gt;- description: String&lt;/p&gt;&lt;hr size=&quot;1&quot;/&gt;&lt;p style=&quot;margin:0 0 0 4px;line-height:1.6;&quot;&gt;+ getDescription(): String&lt;br/&gt;+ putOnTable(): void&lt;br/&gt;+ doAction(): void&lt;br/&gt;+ getName(): String&lt;br/&gt;+ discard(): void&lt;/p&gt;" style="verticalAlign=top;align=left;overflow=fill;fontSize=14;fontFamily=Helvetica;html=1;rounded=0;shadow=0;comic=0;labelBackgroundColor=none;strokeWidth=1;" parent="1" vertex="1">
          <mxGeometry x="198" y="753" width="199" height="226" as="geometry" />
        </mxCell>
        <mxCell id="node7" value="&lt;p style=&quot;margin:0px;margin-top:4px;text-align:center;&quot;&gt;&lt;b&gt;CloseCombatCard&lt;/b&gt;&lt;/p&gt;&lt;hr size=&quot;1&quot;/&gt;&lt;p style=&quot;margin:0 0 0 4px;line-height:1.6;&quot;&gt;+ CloseCombatCard(String, String, int): &lt;/p&gt;" style="verticalAlign=top;align=left;overflow=fill;fontSize=14;fontFamily=Helvetica;html=1;rounded=0;shadow=0;comic=0;labelBackgroundColor=none;strokeWidth=1;" parent="1" vertex="1">
          <mxGeometry x="131" y="1205" width="248" height="58" as="geometry" />
        </mxCell>
        <mxCell id="node8" value="&lt;p style=&quot;margin:0px;margin-top:4px;text-align:center;&quot;&gt;&lt;b&gt;CommanderCard&lt;/b&gt;&lt;/p&gt;&lt;hr size=&quot;1&quot;/&gt;&lt;p style=&quot;margin:0 0 0 4px;line-height:1.6;&quot;&gt;+ CommanderCard(): &lt;/p&gt;" style="verticalAlign=top;align=left;overflow=fill;fontSize=14;fontFamily=Helvetica;html=1;rounded=0;shadow=0;comic=0;labelBackgroundColor=none;strokeWidth=1;" parent="1" vertex="1">
          <mxGeometry x="1119" y="1351" width="186" height="72" as="geometry" />
        </mxCell>
        <mxCell id="node24" value="&lt;p style=&quot;margin:0px;margin-top:4px;text-align:center;&quot;&gt;&lt;i&gt;&amp;lt;&amp;lt;enumeration&amp;gt;&amp;gt;&lt;/i&gt;&lt;br/&gt;&lt;b&gt;Faction&lt;/b&gt;&lt;/p&gt;&lt;hr size=&quot;1&quot;/&gt;&lt;p style=&quot;margin:0 0 0 4px;line-height:1.6;&quot;&gt;- Faction(String, Consumer&amp;lt;Game&amp;gt;): &lt;/p&gt;&lt;hr size=&quot;1&quot;/&gt;&lt;p style=&quot;margin:0 0 0 4px;line-height:1.6;&quot;&gt;+ EMPIRE_NILFGAARD: &lt;br/&gt;+ MONSTERS: &lt;br/&gt;+ NORTHERN_REALMS: &lt;br/&gt;- name: String&lt;br/&gt;+ SKELLIGE: &lt;br/&gt;+ SCOIATEL: &lt;br/&gt;- action: Consumer&amp;lt;Game&amp;gt;&lt;/p&gt;&lt;hr size=&quot;1&quot;/&gt;&lt;p style=&quot;margin:0 0 0 4px;line-height:1.6;&quot;&gt;+ valueOf(String): Faction&lt;br/&gt;+ getName(): String&lt;br/&gt;+ values(): Faction[]&lt;br/&gt;+ DoAction(Game): void&lt;/p&gt;" style="verticalAlign=top;align=left;overflow=fill;fontSize=14;fontFamily=Helvetica;html=1;rounded=0;shadow=0;comic=0;labelBackgroundColor=none;strokeWidth=1;" parent="1" vertex="1">
          <mxGeometry x="1376" y="910" width="241" height="314" as="geometry" />
        </mxCell>
        <mxCell id="node18" value="&lt;p style=&quot;margin:0px;margin-top:4px;text-align:center;&quot;&gt;&lt;b&gt;Game&lt;/b&gt;&lt;/p&gt;&lt;hr size=&quot;1&quot;/&gt;&lt;p style=&quot;margin:0 0 0 4px;line-height:1.6;&quot;&gt;+ Game(ArrayList&amp;lt;User&amp;gt;, Date, ArrayList&amp;lt;Round&amp;gt;): &lt;/p&gt;&lt;hr size=&quot;1&quot;/&gt;&lt;p style=&quot;margin:0 0 0 4px;line-height:1.6;&quot;&gt;- opposition: Player&lt;br/&gt;- players: ArrayList&amp;lt;User&amp;gt;&lt;br/&gt;- isGameFinished: boolean&lt;br/&gt;- date: Date&lt;br/&gt;- currentPlayer: Player&lt;br/&gt;- gameBoard: GameBoard&lt;br/&gt;- rounds: ArrayList&amp;lt;Round&amp;gt;&lt;/p&gt;&lt;hr size=&quot;1&quot;/&gt;&lt;p style=&quot;margin:0 0 0 4px;line-height:1.6;&quot;&gt;+ isGameFinished(): boolean&lt;br/&gt;+ setGameBoard(GameBoard): void&lt;br/&gt;+ getGameBoard(): GameBoard&lt;br/&gt;+ finishGame(): void&lt;br/&gt;+ setGameFinished(boolean): void&lt;br/&gt;+ changeTurn(): void&lt;/p&gt;" style="verticalAlign=top;align=left;overflow=fill;fontSize=14;fontFamily=Helvetica;html=1;rounded=0;shadow=0;comic=0;labelBackgroundColor=none;strokeWidth=1;" parent="1" vertex="1">
          <mxGeometry x="1064" y="1837" width="314" height="344" as="geometry" />
        </mxCell>
        <mxCell id="node5" value="&lt;p style=&quot;margin:0px;margin-top:4px;text-align:center;&quot;&gt;&lt;b&gt;GameBoard&lt;/b&gt;&lt;/p&gt;&lt;hr size=&quot;1&quot;/&gt;&lt;p style=&quot;margin:0 0 0 4px;line-height:1.6;&quot;&gt;+ GameBoard(): &lt;/p&gt;&lt;hr size=&quot;1&quot;/&gt;&lt;p style=&quot;margin:0 0 0 4px;line-height:1.6;&quot;&gt;- weatherCards: ArrayList&amp;lt;SpellCard&amp;gt;&lt;br/&gt;- discard: ArrayList&amp;lt;PlayableCard&amp;gt;&lt;/p&gt;&lt;hr size=&quot;1&quot;/&gt;&lt;p style=&quot;margin:0 0 0 4px;line-height:1.6;&quot;&gt;+ setWeatherCards(ArrayList&amp;lt;SpellCard&amp;gt;): void&lt;br/&gt;+ getWeatherCards(): ArrayList&amp;lt;SpellCard&amp;gt;&lt;br/&gt;- calculateTotalPower(Player): int&lt;br/&gt;- reviveCard(): void&lt;/p&gt;" style="verticalAlign=top;align=left;overflow=fill;fontSize=14;fontFamily=Helvetica;html=1;rounded=0;shadow=0;comic=0;labelBackgroundColor=none;strokeWidth=1;" parent="1" vertex="1">
          <mxGeometry x="771" y="1388" width="287" height="202" as="geometry" />
        </mxCell>
        <mxCell id="node12" value="&lt;p style=&quot;margin:0px;margin-top:4px;text-align:center;&quot;&gt;&lt;b&gt;GameMenuController&lt;/b&gt;&lt;/p&gt;&lt;hr size=&quot;1&quot;/&gt;&lt;p style=&quot;margin:0 0 0 4px;line-height:1.6;&quot;&gt;+ GameMenuController(): &lt;/p&gt;&lt;hr size=&quot;1&quot;/&gt;&lt;p style=&quot;margin:0 0 0 4px;line-height:1.6;&quot;&gt;+ CommanderInfo(): void&lt;br/&gt;+ PlayersLivesInfo(): void&lt;br/&gt;+ PlayersInfo(): void&lt;br/&gt;+ outOfPlayCards(): void&lt;br/&gt;+ inHandDeck(int): void&lt;br/&gt;+ cardsInRow(int): void&lt;br/&gt;+ totalScore(): void&lt;br/&gt;+ putCard(int, int): void&lt;br/&gt;+ TurnInfo(): void&lt;br/&gt;+ endGame(): void&lt;br/&gt;+ spellsInPlay(): void&lt;br/&gt;+ remainingCardsToPlay(): void&lt;br/&gt;+ NumberOfCardsInHand(): void&lt;br/&gt;+ vetoCard(int): void&lt;br/&gt;+ totalScoreOfRow(int): void&lt;br/&gt;+ endRound(): void&lt;br/&gt;+ passRound(): void&lt;/p&gt;" style="verticalAlign=top;align=left;overflow=fill;fontSize=14;fontFamily=Helvetica;html=1;rounded=0;shadow=0;comic=0;labelBackgroundColor=none;strokeWidth=1;" parent="1" vertex="1">
          <mxGeometry x="171" y="1398" width="209" height="430" as="geometry" />
        </mxCell>
        <mxCell id="node17" value="&lt;p style=&quot;margin:0px;margin-top:4px;text-align:center;&quot;&gt;&lt;b&gt;GameMenuView&lt;/b&gt;&lt;/p&gt;&lt;hr size=&quot;1&quot;/&gt;&lt;p style=&quot;margin:0 0 0 4px;line-height:1.6;&quot;&gt;+ GameMenuView(): &lt;/p&gt;&lt;hr size=&quot;1&quot;/&gt;&lt;p style=&quot;margin:0 0 0 4px;line-height:1.6;&quot;&gt;+ showTurnInfo(Player): void&lt;br/&gt;+ spellsInPlay(ArrayList&amp;lt;SpellCard&amp;gt;): void&lt;br/&gt;+ cardsInRow(ArrayList&amp;lt;AbstractCard&amp;gt;): void&lt;br/&gt;+ showNumberOfCardsInHand(int, int): void&lt;br/&gt;+ showTotalScore(int, int): void&lt;br/&gt;+ ShowRemainingCardsToPlay(ArrayList&amp;lt;AbstractCard&amp;gt;): void&lt;br/&gt;+ putCard(Round): void&lt;br/&gt;+ showPassRound(): void&lt;br/&gt;+ showEndRound(): void&lt;br/&gt;+ showTotalScoreOfRow(int): void&lt;br/&gt;+ showInHandDeck(ArrayList&amp;lt;AbstractCard&amp;gt;): void&lt;br/&gt;+ run(Scanner): void&lt;br/&gt;+ showPlayersLives(ArrayList&amp;lt;Player&amp;gt;): void&lt;br/&gt;+ outOfPlayCards(ArrayList&amp;lt;AbstractCard&amp;gt;): void&lt;br/&gt;+ showPlayersInfo(ArrayList&amp;lt;Player&amp;gt;): void&lt;br/&gt;+ showCommander(CommanderCard): void&lt;br/&gt;+ showEndGame(): void&lt;/p&gt;" style="verticalAlign=top;align=left;overflow=fill;fontSize=14;fontFamily=Helvetica;html=1;rounded=0;shadow=0;comic=0;labelBackgroundColor=none;strokeWidth=1;" parent="1" vertex="1">
          <mxGeometry x="-10" y="1888" width="364" height="430" as="geometry" />
        </mxCell>
        <mxCell id="node0" value="&lt;p style=&quot;margin:0px;margin-top:4px;text-align:center;&quot;&gt;&lt;b&gt;LoginMenuController&lt;/b&gt;&lt;/p&gt;&lt;hr size=&quot;1&quot;/&gt;&lt;p style=&quot;margin:0 0 0 4px;line-height:1.6;&quot;&gt;+ LoginMenuController(): &lt;/p&gt;&lt;hr size=&quot;1&quot;/&gt;&lt;p style=&quot;margin:0 0 0 4px;line-height:1.6;&quot;&gt;+ Login(String, String): void&lt;br/&gt;+ forgetPassword(String): void&lt;/p&gt;" style="verticalAlign=top;align=left;overflow=fill;fontSize=14;fontFamily=Helvetica;html=1;rounded=0;shadow=0;comic=0;labelBackgroundColor=none;strokeWidth=1;" parent="1" vertex="1">
          <mxGeometry x="-105" y="1343" width="215" height="123" as="geometry" />
        </mxCell>
        <mxCell id="node16" value="&lt;p style=&quot;margin:0px;margin-top:4px;text-align:center;&quot;&gt;&lt;b&gt;LoginMenuView&lt;/b&gt;&lt;/p&gt;&lt;hr size=&quot;1&quot;/&gt;&lt;p style=&quot;margin:0 0 0 4px;line-height:1.6;&quot;&gt;+ LoginMenuView(): &lt;/p&gt;&lt;hr size=&quot;1&quot;/&gt;&lt;p style=&quot;margin:0 0 0 4px;line-height:1.6;&quot;&gt;+ run(Scanner): void&lt;br/&gt;+ Login(Scanner): void&lt;/p&gt;" style="verticalAlign=top;align=left;overflow=fill;fontSize=14;fontFamily=Helvetica;html=1;rounded=0;shadow=0;comic=0;labelBackgroundColor=none;strokeWidth=1;" parent="1" vertex="1">
          <mxGeometry x="485" y="1812" width="160" height="108" as="geometry" />
        </mxCell>
        <mxCell id="node11" value="&lt;p style=&quot;margin:0px;margin-top:4px;text-align:center;&quot;&gt;&lt;b&gt;Main&lt;/b&gt;&lt;/p&gt;&lt;hr size=&quot;1&quot;/&gt;&lt;p style=&quot;margin:0 0 0 4px;line-height:1.6;&quot;&gt;+ Main(): &lt;/p&gt;&lt;hr size=&quot;1&quot;/&gt;&lt;p style=&quot;margin:0 0 0 4px;line-height:1.6;&quot;&gt;+ main(String[]): void&lt;/p&gt;" style="verticalAlign=top;align=left;overflow=fill;fontSize=14;fontFamily=Helvetica;html=1;rounded=0;shadow=0;comic=0;labelBackgroundColor=none;strokeWidth=1;" parent="1" vertex="1">
          <mxGeometry x="1460" y="1654" width="151" height="84" as="geometry" />
        </mxCell>
        <mxCell id="node9" value="&lt;p style=&quot;margin:0px;margin-top:4px;text-align:center;&quot;&gt;&lt;b&gt;MainMenuController&lt;/b&gt;&lt;/p&gt;&lt;hr size=&quot;1&quot;/&gt;&lt;p style=&quot;margin:0 0 0 4px;line-height:1.6;&quot;&gt;+ MainMenuController(): &lt;/p&gt;&lt;hr size=&quot;1&quot;/&gt;&lt;p style=&quot;margin:0 0 0 4px;line-height:1.6;&quot;&gt;+ startGame(): void&lt;br/&gt;+ showProfile(): void&lt;/p&gt;" style="verticalAlign=top;align=left;overflow=fill;fontSize=14;fontFamily=Helvetica;html=1;rounded=0;shadow=0;comic=0;labelBackgroundColor=none;strokeWidth=1;" parent="1" vertex="1">
          <mxGeometry x="-99" y="1554" width="209" height="121" as="geometry" />
        </mxCell>
        <mxCell id="node3" value="&lt;p style=&quot;margin:0px;margin-top:4px;text-align:center;&quot;&gt;&lt;b&gt;MainMenuView&lt;/b&gt;&lt;/p&gt;&lt;hr size=&quot;1&quot;/&gt;&lt;p style=&quot;margin:0 0 0 4px;line-height:1.6;&quot;&gt;+ MainMenuView(): &lt;/p&gt;&lt;hr size=&quot;1&quot;/&gt;&lt;p style=&quot;margin:0 0 0 4px;line-height:1.6;&quot;&gt;+ goToGameMenu(Scanner): void&lt;br/&gt;+ run(Scanner): void&lt;br/&gt;+ goToProfileMenu(Scanner): void&lt;/p&gt;" style="verticalAlign=top;align=left;overflow=fill;fontSize=14;fontFamily=Helvetica;html=1;rounded=0;shadow=0;comic=0;labelBackgroundColor=none;strokeWidth=1;" parent="1" vertex="1">
          <mxGeometry x="1096" y="1132" width="220" height="147" as="geometry" />
        </mxCell>
        <mxCell id="node21" value="&lt;p style=&quot;margin:0px;margin-top:4px;text-align:center;&quot;&gt;&lt;b&gt;PlayableCard&lt;/b&gt;&lt;/p&gt;&lt;hr size=&quot;1&quot;/&gt;&lt;p style=&quot;margin:0 0 0 4px;line-height:1.6;&quot;&gt;+ PlayableCard(String, String, int): &lt;/p&gt;&lt;hr size=&quot;1&quot;/&gt;&lt;p style=&quot;margin:0 0 0 4px;line-height:1.6;&quot;&gt;- isBeingWeakened: boolean&lt;br/&gt;- power: int&lt;/p&gt;&lt;hr size=&quot;1&quot;/&gt;&lt;p style=&quot;margin:0 0 0 4px;line-height:1.6;&quot;&gt;+ setPower(int): void&lt;br/&gt;+ isBeingWeakened(): boolean&lt;br/&gt;+ setBeingWeakened(boolean): void&lt;br/&gt;+ getPower(): int&lt;br/&gt;+ putOnTable(): void&lt;/p&gt;" style="verticalAlign=top;align=left;overflow=fill;fontSize=14;fontFamily=Helvetica;html=1;rounded=0;shadow=0;comic=0;labelBackgroundColor=none;strokeWidth=1;" parent="1" vertex="1">
          <mxGeometry x="486" y="932" width="230" height="212" as="geometry" />
        </mxCell>
        <mxCell id="node1" value="&lt;p style=&quot;margin:0px;margin-top:4px;text-align:center;&quot;&gt;&lt;b&gt;Player&lt;/b&gt;&lt;/p&gt;&lt;hr size=&quot;1&quot;/&gt;&lt;p style=&quot;margin:0 0 0 4px;line-height:1.6;&quot;&gt;+ Player(String, String, String, int, String, CommanderCard, ArrayList&amp;lt;AbstractCard&amp;gt;, Faction, int): &lt;/p&gt;&lt;hr size=&quot;1&quot;/&gt;&lt;p style=&quot;margin:0 0 0 4px;line-height:1.6;&quot;&gt;- rangedHorn: SpellCard&lt;br/&gt;- faction: Faction&lt;br/&gt;- leader: CommanderCard&lt;br/&gt;- deck: ArrayList&amp;lt;AbstractCard&amp;gt;&lt;br/&gt;- hand: ArrayList&amp;lt;AbstractCard&amp;gt;&lt;br/&gt;- siegeWeaponHorn: SpellCard&lt;br/&gt;- closeHorn: SpellCard&lt;br/&gt;- rangedCombatCards: ArrayList&amp;lt;RangedCombatCard&amp;gt;&lt;br/&gt;- roundsLost: int&lt;br/&gt;- closeCombatCards: ArrayList&amp;lt;CloseCombatCard&amp;gt;&lt;br/&gt;- siegeWeaponCards: ArrayList&amp;lt;SiegeWeaponCard&amp;gt;&lt;br/&gt;- commanderCards: ArrayList&amp;lt;CommanderCard&amp;gt;&lt;/p&gt;&lt;hr size=&quot;1&quot;/&gt;&lt;p style=&quot;margin:0 0 0 4px;line-height:1.6;&quot;&gt;+ getRoundsLost(): int&lt;br/&gt;+ getRangedCombatCards(): ArrayList&amp;lt;RangedCombatCard&amp;gt;&lt;br/&gt;+ setCloseHorn(SpellCard): void&lt;br/&gt;+ setSiegeWeaponHorn(SpellCard): void&lt;br/&gt;+ getHand(): ArrayList&amp;lt;AbstractCard&amp;gt;&lt;br/&gt;+ getDeck(): ArrayList&amp;lt;AbstractCard&amp;gt;&lt;br/&gt;+ getSiegeWeaponHorn(): SpellCard&lt;br/&gt;+ setDeck(ArrayList&amp;lt;AbstractCard&amp;gt;): void&lt;br/&gt;+ getCloseCombatCards(): ArrayList&amp;lt;CloseCombatCard&amp;gt;&lt;br/&gt;+ passTurn(): void&lt;br/&gt;+ setSiegeWeaponCards(ArrayList&amp;lt;SiegeWeaponCard&amp;gt;): void&lt;br/&gt;+ getCloseHorn(): SpellCard&lt;br/&gt;+ setFaction(Faction): void&lt;br/&gt;+ getSiegeWeaponCards(): ArrayList&amp;lt;SiegeWeaponCard&amp;gt;&lt;br/&gt;+ getCommanderCards(): ArrayList&amp;lt;CommanderCard&amp;gt;&lt;br/&gt;+ setCloseCombatCards(ArrayList&amp;lt;CloseCombatCard&amp;gt;): void&lt;br/&gt;+ setHand(ArrayList&amp;lt;AbstractCard&amp;gt;): void&lt;br/&gt;+ setRangedCombatCards(ArrayList&amp;lt;RangedCombatCard&amp;gt;): void&lt;br/&gt;+ setRangedHorn(SpellCard): void&lt;br/&gt;+ getLeader(): CommanderCard&lt;br/&gt;+ getFaction(): Faction&lt;br/&gt;+ setLeader(CommanderCard): void&lt;br/&gt;+ getRangedHorn(): SpellCard&lt;br/&gt;+ setCommanderCards(ArrayList&amp;lt;CommanderCard&amp;gt;): void&lt;br/&gt;+ playCard(GameBoard): void&lt;/p&gt;" style="verticalAlign=top;align=left;overflow=fill;fontSize=14;fontFamily=Helvetica;html=1;rounded=0;shadow=0;comic=0;labelBackgroundColor=none;strokeWidth=1;" parent="1" vertex="1">
          <mxGeometry x="458" y="-14" width="381" height="886" as="geometry" />
        </mxCell>
        <mxCell id="node23" value="&lt;p style=&quot;margin:0px;margin-top:4px;text-align:center;&quot;&gt;&lt;b&gt;ProfileMenuController&lt;/b&gt;&lt;/p&gt;&lt;hr size=&quot;1&quot;/&gt;&lt;p style=&quot;margin:0 0 0 4px;line-height:1.6;&quot;&gt;+ ProfileMenuController(): &lt;/p&gt;&lt;hr size=&quot;1&quot;/&gt;&lt;p style=&quot;margin:0 0 0 4px;line-height:1.6;&quot;&gt;+ changePassword(String, String, String): void&lt;br/&gt;+ changeNickname(String): void&lt;br/&gt;+ changeUsername(String): void&lt;br/&gt;+ changeEmail(String): void&lt;/p&gt;" style="verticalAlign=top;align=left;overflow=fill;fontSize=14;fontFamily=Helvetica;html=1;rounded=0;shadow=0;comic=0;labelBackgroundColor=none;strokeWidth=1;" parent="1" vertex="1">
          <mxGeometry x="1119" y="1632" width="281" height="144" as="geometry" />
        </mxCell>
        <mxCell id="node19" value="&lt;p style=&quot;margin:0px;margin-top:4px;text-align:center;&quot;&gt;&lt;b&gt;ProfileMenuView&lt;/b&gt;&lt;/p&gt;&lt;hr size=&quot;1&quot;/&gt;&lt;p style=&quot;margin:0 0 0 4px;line-height:1.6;&quot;&gt;+ ProfileMenuView(): &lt;/p&gt;&lt;hr size=&quot;1&quot;/&gt;&lt;p style=&quot;margin:0 0 0 4px;line-height:1.6;&quot;&gt;+ run(Scanner): void&lt;br/&gt;+ showInfo(): void&lt;/p&gt;" style="verticalAlign=top;align=left;overflow=fill;fontSize=14;fontFamily=Helvetica;html=1;rounded=0;shadow=0;comic=0;labelBackgroundColor=none;strokeWidth=1;" parent="1" vertex="1">
          <mxGeometry x="864" y="1657" width="165" height="108" as="geometry" />
        </mxCell>
        <mxCell id="node20" value="&lt;p style=&quot;margin:0px;margin-top:4px;text-align:center;&quot;&gt;&lt;b&gt;RangedCombatCard&lt;/b&gt;&lt;/p&gt;&lt;hr size=&quot;1&quot;/&gt;&lt;p style=&quot;margin:0 0 0 4px;line-height:1.6;&quot;&gt;+ RangedCombatCard(String, String, int): &lt;/p&gt;" style="verticalAlign=top;align=left;overflow=fill;fontSize=14;fontFamily=Helvetica;html=1;rounded=0;shadow=0;comic=0;labelBackgroundColor=none;strokeWidth=1;" parent="1" vertex="1">
          <mxGeometry x="777" y="1222" width="259" height="58" as="geometry" />
        </mxCell>
        <mxCell id="node6" value="&lt;p style=&quot;margin:0px;margin-top:4px;text-align:center;&quot;&gt;&lt;b&gt;RegisterMenuController&lt;/b&gt;&lt;/p&gt;&lt;hr size=&quot;1&quot;/&gt;&lt;p style=&quot;margin:0 0 0 4px;line-height:1.6;&quot;&gt;+ RegisterMenuController(): &lt;/p&gt;&lt;hr size=&quot;1&quot;/&gt;&lt;p style=&quot;margin:0 0 0 4px;line-height:1.6;&quot;&gt;+ isEmailValid(String): boolean&lt;br/&gt;+ register(String, String, String, String): void&lt;br/&gt;+ isUsernameValid(String): boolean&lt;br/&gt;+ isPasswordValid(String, String): boolean&lt;br/&gt;+ randomPasswordGenerator(): String&lt;/p&gt;" style="verticalAlign=top;align=left;overflow=fill;fontSize=14;fontFamily=Helvetica;html=1;rounded=0;shadow=0;comic=0;labelBackgroundColor=none;strokeWidth=1;" parent="1" vertex="1">
          <mxGeometry x="440" y="1204" width="271" height="179" as="geometry" />
        </mxCell>
        <mxCell id="node22" value="&lt;p style=&quot;margin:0px;margin-top:4px;text-align:center;&quot;&gt;&lt;b&gt;RegisterMenuView&lt;/b&gt;&lt;/p&gt;&lt;hr size=&quot;1&quot;/&gt;&lt;p style=&quot;margin:0 0 0 4px;line-height:1.6;&quot;&gt;+ RegisterMenuView(): &lt;/p&gt;&lt;hr size=&quot;1&quot;/&gt;&lt;p style=&quot;margin:0 0 0 4px;line-height:1.6;&quot;&gt;+ run(Scanner): void&lt;/p&gt;" style="verticalAlign=top;align=left;overflow=fill;fontSize=14;fontFamily=Helvetica;html=1;rounded=0;shadow=0;comic=0;labelBackgroundColor=none;strokeWidth=1;" parent="1" vertex="1">
          <mxGeometry x="530" y="1635" width="177" height="84" as="geometry" />
        </mxCell>
        <mxCell id="node4" value="&lt;p style=&quot;margin:0px;margin-top:4px;text-align:center;&quot;&gt;&lt;b&gt;Round&lt;/b&gt;&lt;/p&gt;&lt;hr size=&quot;1&quot;/&gt;&lt;p style=&quot;margin:0 0 0 4px;line-height:1.6;&quot;&gt;+ Round(int): &lt;/p&gt;&lt;hr size=&quot;1&quot;/&gt;&lt;p style=&quot;margin:0 0 0 4px;line-height:1.6;&quot;&gt;- player1: Player&lt;br/&gt;- roundNumber: int&lt;br/&gt;- player2: Player&lt;br/&gt;- isOver: boolean&lt;/p&gt;&lt;hr size=&quot;1&quot;/&gt;&lt;p style=&quot;margin:0 0 0 4px;line-height:1.6;&quot;&gt;+ hasPlayer1Passed(): boolean&lt;br/&gt;+ getRoundNumber(): int&lt;br/&gt;+ hasPlayer2Passed(): boolean&lt;br/&gt;+ isOver(): boolean&lt;br/&gt;+ setOver(boolean): void&lt;/p&gt;" style="verticalAlign=top;align=left;overflow=fill;fontSize=14;fontFamily=Helvetica;html=1;rounded=0;shadow=0;comic=0;labelBackgroundColor=none;strokeWidth=1;" parent="1" vertex="1">
          <mxGeometry x="1381" y="1294" width="198" height="269" as="geometry" />
        </mxCell>
        <mxCell id="node10" value="&lt;p style=&quot;margin:0px;margin-top:4px;text-align:center;&quot;&gt;&lt;b&gt;SiegeWeaponCard&lt;/b&gt;&lt;/p&gt;&lt;hr size=&quot;1&quot;/&gt;&lt;p style=&quot;margin:0 0 0 4px;line-height:1.6;&quot;&gt;+ SiegeWeaponCard(String, String, int): &lt;/p&gt;" style="verticalAlign=top;align=left;overflow=fill;fontSize=14;fontFamily=Helvetica;html=1;rounded=0;shadow=0;comic=0;labelBackgroundColor=none;strokeWidth=1;" parent="1" vertex="1">
          <mxGeometry x="915" y="1010" width="251" height="58" as="geometry" />
        </mxCell>
        <mxCell id="node15" value="&lt;p style=&quot;margin:0px;margin-top:4px;text-align:center;&quot;&gt;&lt;b&gt;SpellCard&lt;/b&gt;&lt;/p&gt;&lt;hr size=&quot;1&quot;/&gt;&lt;p style=&quot;margin:0 0 0 4px;line-height:1.6;&quot;&gt;+ SpellCard(String, String, Consumer&amp;lt;GameBoard&amp;gt;): &lt;/p&gt;&lt;hr size=&quot;1&quot;/&gt;&lt;p style=&quot;margin:0 0 0 4px;line-height:1.6;&quot;&gt;- action: Consumer&amp;lt;GameBoard&amp;gt;&lt;/p&gt;&lt;hr size=&quot;1&quot;/&gt;&lt;p style=&quot;margin:0 0 0 4px;line-height:1.6;&quot;&gt;+ doAction(GameBoard): void&lt;/p&gt;" style="verticalAlign=top;align=left;overflow=fill;fontSize=14;fontFamily=Helvetica;html=1;rounded=0;shadow=0;comic=0;labelBackgroundColor=none;strokeWidth=1;" parent="1" vertex="1">
          <mxGeometry x="-51" y="1041" width="322" height="110" as="geometry" />
        </mxCell>
        <mxCell id="node14" value="&lt;p style=&quot;margin:0px;margin-top:4px;text-align:center;&quot;&gt;&lt;b&gt;User&lt;/b&gt;&lt;/p&gt;&lt;hr size=&quot;1&quot;/&gt;&lt;p style=&quot;margin:0 0 0 4px;line-height:1.6;&quot;&gt;+ User(String, String, String, int, String): &lt;/p&gt;&lt;hr size=&quot;1&quot;/&gt;&lt;p style=&quot;margin:0 0 0 4px;line-height:1.6;&quot;&gt;- password: String&lt;br/&gt;- userInfo: UserInfo&lt;br/&gt;- email: String&lt;br/&gt;- users: ArrayList&amp;lt;User&amp;gt;&lt;br/&gt;- allGamePlayed: ArrayList&amp;lt;Game&amp;gt;&lt;br/&gt;- loggedInUser: User&lt;br/&gt;- securityQuestion: HashMap&amp;lt;Integer, String&amp;gt;&lt;br/&gt;- username: String&lt;/p&gt;&lt;hr size=&quot;1&quot;/&gt;&lt;p style=&quot;margin:0 0 0 4px;line-height:1.6;&quot;&gt;+ setEmail(String): void&lt;br/&gt;+ startGame(): Player&lt;br/&gt;+ setPassword(String): void&lt;br/&gt;+ getUserInfo(): UserInfo&lt;br/&gt;+ setUsername(String): void&lt;br/&gt;+ getUsername(): String&lt;br/&gt;+ getEmail(): String&lt;br/&gt;+ updateRanking(): void&lt;/p&gt;" style="verticalAlign=top;align=left;overflow=fill;fontSize=14;fontFamily=Helvetica;html=1;rounded=0;shadow=0;comic=0;labelBackgroundColor=none;strokeWidth=1;" parent="1" vertex="1">
          <mxGeometry x="973" y="179" width="286" height="410" as="geometry" />
        </mxCell>
        <mxCell id="node13" value="&lt;p style=&quot;margin:0px;margin-top:4px;text-align:center;&quot;&gt;&lt;b&gt;UserInfo&lt;/b&gt;&lt;/p&gt;&lt;hr size=&quot;1&quot;/&gt;&lt;p style=&quot;margin:0 0 0 4px;line-height:1.6;&quot;&gt;+ UserInfo(): &lt;/p&gt;&lt;hr size=&quot;1&quot;/&gt;&lt;p style=&quot;margin:0 0 0 4px;line-height:1.6;&quot;&gt;- gamesPlayed: int&lt;br/&gt;- gamesDrawn: int&lt;br/&gt;- highestScore: int&lt;br/&gt;- gamesWon: int&lt;br/&gt;- totalScore: int&lt;br/&gt;- gamesLost: int&lt;/p&gt;&lt;hr size=&quot;1&quot;/&gt;&lt;p style=&quot;margin:0 0 0 4px;line-height:1.6;&quot;&gt;+ getGamesPlayed(): int&lt;br/&gt;+ getHighestScore(): int&lt;br/&gt;+ getGamesLost(): int&lt;br/&gt;+ getGamesDrawn(): int&lt;br/&gt;+ setGamesLost(int): void&lt;br/&gt;+ setTotalScore(int): void&lt;br/&gt;+ setGamesDrawn(int): void&lt;br/&gt;+ setGamesPlayed(int): void&lt;br/&gt;+ setHighestScore(int): void&lt;br/&gt;+ setGamesWon(int): void&lt;br/&gt;+ getTotalScore(): int&lt;br/&gt;+ getGamesWon(): int&lt;/p&gt;" style="verticalAlign=top;align=left;overflow=fill;fontSize=14;fontFamily=Helvetica;html=1;rounded=0;shadow=0;comic=0;labelBackgroundColor=none;strokeWidth=1;" parent="1" vertex="1">
          <mxGeometry x="722" y="1817" width="185" height="454" as="geometry" />
        </mxCell>
        <mxCell id="edge1" value="" style="html=1;rounded=1;edgeStyle=orthogonalEdgeStyle;dashed=0;startArrow=none;endArrow=block;endSize=12;strokeColor=#000082;exitX=0.500;exitY=0.001;exitDx=0;exitDy=0;entryX=0.500;entryY=1.000;entryDx=0;entryDy=0;" parent="1" source="node7" target="node21" edge="1">
          <mxGeometry width="50" height="50" relative="1" as="geometry">
            <Array as="points">
              <mxPoint x="255" y="1175" />
              <mxPoint x="601" y="1175" />
            </Array>
          </mxGeometry>
        </mxCell>
        <mxCell id="edge0" value="" style="html=1;rounded=1;edgeStyle=orthogonalEdgeStyle;dashed=0;startArrow=none;endArrow=block;endSize=12;strokeColor=#000082;exitX=1.000;exitY=0.449;exitDx=0;exitDy=0;entryX=0.000;entryY=0.500;entryDx=0;entryDy=0;" parent="1" source="node1" target="node14" edge="1">
          <mxGeometry width="50" height="50" relative="1" as="geometry">
            <Array as="points" />
          </mxGeometry>
        </mxCell>
        <mxCell id="edge2" value="" style="html=1;rounded=1;edgeStyle=orthogonalEdgeStyle;dashed=0;startArrow=none;endArrow=block;endSize=12;strokeColor=#000082;exitX=0.500;exitY=0.000;exitDx=0;exitDy=0;entryX=0.500;entryY=1.000;entryDx=0;entryDy=0;" parent="1" source="node20" target="node21" edge="1">
          <mxGeometry width="50" height="50" relative="1" as="geometry">
            <Array as="points">
              <mxPoint x="906" y="1175" />
              <mxPoint x="601" y="1175" />
            </Array>
          </mxGeometry>
        </mxCell>
        <mxCell id="edge4" value="" style="html=1;rounded=1;edgeStyle=orthogonalEdgeStyle;dashed=0;startArrow=none;endArrow=block;endSize=12;strokeColor=#000082;exitX=0.500;exitY=1.000;exitDx=0;exitDy=0;entryX=0.500;entryY=1.000;entryDx=0;entryDy=0;" parent="1" source="node10" target="node21" edge="1">
          <mxGeometry width="50" height="50" relative="1" as="geometry">
            <Array as="points">
              <mxPoint x="1041" y="1175" />
              <mxPoint x="601" y="1175" />
            </Array>
          </mxGeometry>
        </mxCell>
        <mxCell id="edge3" value="" style="html=1;rounded=1;edgeStyle=orthogonalEdgeStyle;dashed=0;startArrow=none;endArrow=block;endSize=12;strokeColor=#000082;exitX=0.977;exitY=0.000;exitDx=0;exitDy=0;entryX=0.326;entryY=1.000;entryDx=0;entryDy=0;" parent="1" source="node15" target="node2" edge="1">
          <mxGeometry width="50" height="50" relative="1" as="geometry">
            <Array as="points" />
          </mxGeometry>
        </mxCell>
        <mxCell id="YGfIornVvEYmhkLZN-YV-1" value="" style="endArrow=classic;html=1;rounded=0;entryX=0.892;entryY=1.005;entryDx=0;entryDy=0;entryPerimeter=0;" edge="1" parent="1" target="node2">
          <mxGeometry width="50" height="50" relative="1" as="geometry">
            <mxPoint x="486" y="1041" as="sourcePoint" />
            <mxPoint x="386" y="992" as="targetPoint" />
            <Array as="points">
              <mxPoint x="386" y="1041" />
            </Array>
          </mxGeometry>
        </mxCell>
      </root>
    </mxGraphModel>
  </diagram>
</mxfile>
